<svg width="24" height="24" viewBox="0 0 24 24" fill="black" xmlns="http://www.w3.org/2000/svg">
  <path d="M16.365 1.43c0 1.14-.46 2.24-1.23 3.06-.8.83-2.1 1.47-3.24 1.38-.15-1.12.46-2.3 1.23-3.07.8-.8 2.19-1.4 3.24-1.37zM21.72 17.33c-.5 1.16-.74 1.68-1.38 2.66-.89 1.34-2.14 3.02-3.69 3.04-1.38.02-1.74-.89-3.62-.88-1.88.01-2.28.9-3.66.89-1.55-.02-2.74-1.53-3.63-2.87-2.48-3.72-2.74-8.08-1.21-10.44 1.08-1.67 2.8-2.65 4.41-2.65 1.64 0 2.67.9 4.02.9 1.32 0 2.12-.9 4-.9 1.43 0 2.95.78 4.03 2.12-3.55 1.94-2.97 7.01.73 8.13z"/>
</svg>
