<svg width="64" height="64" viewBox="0 0 64 64" fill="none" xmlns="http://www.w3.org/2000/svg">
  <defs>
    <linearGradient id="premium-bg" x1="0" y1="0" x2="64" y2="64" gradientUnits="userSpaceOnUse">
      <stop offset="0" stop-color="#1e293b"/>
      <stop offset="1" stop-color="#0f172a"/>
    </linearGradient>
    <filter id="glow" x="-20%" y="-20%" width="140%" height="140%">
      <feGaussianBlur stdDeviation="2" result="blur" />
      <feComposite in="SourceGraphic" in2="blur" operator="over" />
    </filter>
  </defs>
  
  <rect width="64" height="64" rx="18" fill="url(#premium-bg)"/>
  
  <g filter="url(#glow)">
    <!-- Main Bubble Body -->
    <path d="M46 30C46 37.732 39.732 44 32 44C24.268 44 18 37.732 18 30C18 22.268 24.268 16 32 16C39.732 16 46 22.268 46 30Z" stroke="white" stroke-width="3" stroke-linecap="round"/>
    
    <!-- Sophisticated Tail -->
    <path d="M32 44C32 44 30 48 24 50C24 50 26 44 26 44" stroke="white" stroke-width="3" stroke-linecap="round" stroke-linejoin="round"/>
    
    <!-- Stylized "A" -->
    <path d="M26 34L30 25L34 34" stroke="white" stroke-width="2.5" stroke-linecap="round" stroke-linejoin="round"/>
    <path d="M28 31H32" stroke="white" stroke-width="2.5" stroke-linecap="round"/>
    
    <!-- Stylized "I" -->
    <path d="M38 25V34" stroke="white" stroke-width="2.5" stroke-linecap="round" stroke-linejoin="round"/>
  </g>
</svg>
